<svg version="1.1" id="logo-teclead" xmlns="http://www.w3.org/2000/svg" xmlns:xlink="http://www.w3.org/1999/xlink" x="0px" y="0px"
	 viewBox="0 0 1151.3 118.2" style="enable-background:new 0 0 1151.3 118.2;" xml:space="preserve">
<style type="text/css">
	.st0{fill:#6163FF;}
	.st1{fill:#312C32;}
</style>
<g id="XMLID_7_">
	<path id="XMLID_11_" class="st0" d="M306.2,100.3v11.4c0,0.8,0,1,0.2,1.6c0.8,2.6,4.1,4.5,6.3,4.9c3.8,0.7,16.9-4,20.6-5.6
		c12.4-5.5,20.9-13.6,27.2-24.2c4.4-7.4,5-12.4-2.4-14.4c-1.1-0.3-14.3-0.3-15.8,0c-4.6,0.9-4.8,2.4-7.8,7.5
		c-3.2,5.3-11.1,10.8-17,12.3c-6.7,1.7-8.7,1-10.5,4.1c-0.2,0.3-0.4,0.7-0.5,1.1C306.2,99.3,306.2,99.5,306.2,100.3 M296.2,18.3V7.1
		c0-0.8-0.1-1-0.2-1.6c-0.4-2.2-2.1-3.6-2.8-4.1c-5.5-3.8-23.1,4.6-27.1,7c-12.5,7.3-22.4,20.3-25.9,34.4
		c-2.6,10.6-2.6,19.8-0.6,30.3c0.4,2.2,2.9,9.5,3.5,10.4c0.4,0.6,0.9,1.1,1.2,1.7c0.9,1.4,1.5,3.1,2.2,4.7
		c2.6,5.4,9.7,12.1,14.3,15.5c5.8,4.3,18.9,11.2,26.8,11.7c4,0.3,7.5-1.3,8.5-4.9c0.3-1.2,0.3-10.9,0-12.8
		c-1.2-7.3-5.5-5.3-15.4-10.4c-11.1-5.7-16.3-20.5-15.7-32.2c0.6-10.6,4.1-19,11.7-25.7c1.5-1.3,6.3-4.4,7.7-4.9
		c2.1-0.8,10.3-2.3,11.6-6.6C296.3,19.3,296.2,19.1,296.2,18.3z M306.2,4.4c-0.3,2.7-0.3,14.4,0,15c0.2,0.6,1.1,1.5,4,2.4
		c0.8,0.3,1.8,0.6,2.6,0.8c1,0.3,8.6,2.7,10.5,3.7c3.4,1.7,8.9,6,11.5,10.4c2.7,4.6,2.3,5.5,6.5,6.7c1,0.3,16.3,0.3,17.5,0
		c3.1-0.8,5.6-3.7,5.1-7c-0.5-3-5.9-11.5-8.1-14.3c-9.2-12-26.6-21-42.1-22.1c-2.2-0.2-3.9,0.1-5.7,1.4C307,2.2,306.4,3.2,306.2,4.4
		z M125,5.9v104.8c0,0.8,0.1,1,0.6,1.5c2.3,2.2,2.4,2.4,5,3c0.8,0.2,1,0.2,1.8,0.2h85.5c0.8,0,1,0,1.8-0.1c3.2-0.5,5.1-2.7,5.5-4.9
		c0.3-1.7,0.3-12.1,0-13.3c-0.8-2.9-2.2-3.8-6.1-4.8c-0.8-0.2-1-0.2-1.8-0.2l-65.7,0.2V68.9h60.2c0.8,0,1,0,1.6-0.2
		c2.8-0.9,3.9-3.7,4.3-5.3c0.3-1.2,0.3-10.8,0-11.9c-0.5-1.7-1.6-4.1-4.2-5.1c-0.7-0.3-0.9-0.3-1.7-0.3h-60.2V22.7h68
		c0.8,0,1,0,1.6-0.3c2.5-1,3.6-3,3.9-4.5c0.3-1.7,0.3-12,0-13.3c-0.4-1.7-1.4-3.3-3.7-4.2c-0.7-0.3-0.9-0.3-1.7-0.4H130
		c-0.8,0.1-0.9,0.1-1.6,0.4c-1.7,0.8-2.9,2.6-3.2,3.8C125,4.9,125,5.1,125,5.9z M5.5,22.7H41v86.5c0,0.8,0,1,0.3,1.7
		c0.9,2.4,1.9,3.3,4.2,4.1c0.4,0.1,0.9,0.3,1.4,0.3c0.6,0,0.8,0.1,1.6,0.1h12.4c0.8,0,1,0,1.5-0.1c1-0.1,3.3-1.4,3.6-1.6
		c0.5-0.4,1.4-1.6,1.8-2.7c0.2-0.6,0.2-0.8,0.2-1.6V22.7h35.5c0.8,0,1,0,1.5-0.2c1.1-0.4,2.6-2,3.5-2.9c0.5-0.6,0.6-0.7,0.6-1.6V5.4
		c0-0.8,0-1-0.1-1.5c-0.3-1.5-2-3.2-3.3-3.6c-0.6-0.2-0.7-0.2-1.5-0.2H5.4c-0.8,0.1-1,0-1.6,0.2C1.1,1.2,0.5,3.1,0.2,5.6
		C0,7.4-0.3,17.8,0.6,19.4c0.2,0.3,2.3,2.6,3.5,3C4.6,22.6,4.7,22.7,5.5,22.7z"/>
	<g id="XMLID_4_">
		<path id="XMLID_64_" class="st1" d="M821.2,6.7c-6.6-2.8-12.9-4.4-20-5c-2.5-0.2-53.1-0.2-55-0.1c-2.6,0.2-5.4,1-6.3,4
			c-0.2,0.6-0.2,0.9-0.2,1.7v103.3c0,0.8,0,1,0.1,1.6c0.4,2,2.1,3.3,4.3,4.2c0.8,0.3,0.9,0.3,1.7,0.3c17.4,0.1,48.2,0.3,52.1,0
			c19-1.5,34.8-7.7,47.2-23.6c3.7-4.8,6.4-9.7,8.5-15.9c0.7-2.2,2.9-13.2,3-15.4C857.9,38,843.2,16,821.2,6.7z M826.9,75.5
			c-5.5,10.9-13.1,15.9-24.7,18.3c-0.8,0.2-1,0.2-1.8,0.2l-34.9,0.2V23.7c0,0,24.3-0.5,31.9,0c11.6,0.8,21,5.6,27.4,15.2
			C831.2,48.5,832.8,63.9,826.9,75.5z"/>
		<path id="XMLID_65_" class="st1" d="M724.1,109.9L673.8,5.4c-0.3-0.7-0.4-0.9-0.7-1.3c-1.1-1.7-3.8-2.3-5.4-2.5
			C665,1.3,650.9,1,647.9,2.4c-0.5,0.3-1,0.5-1.5,1.1c-0.4,0.5-0.7,0.9-1,1.6l-50.3,104.5c-0.3,0.7-0.4,0.9-0.4,1.3
			c-0.3,2.5,2.2,4.5,3.8,5.2c0.4,0.2,0.8,0.4,1.3,0.5c0.6,0.1,0.8,0.1,1.6,0.1h13.9c0.8,0,1,0,1.6-0.1c0.6-0.1,3.1-1.3,3.6-1.8
			c0.3-0.3,0.4-0.4,0.7-1.1l13.2-27.3h50.5c0,0,12,25.7,13.5,27.8c1,1.3,2.9,2.1,5,2.5c1.8,0.3,14.4,0.3,15.5,0
			c2.4-0.6,5.1-1.7,5.7-5.2c0-0.2,0-0.3,0-0.5C724.5,110.7,724.5,110.6,724.1,109.9z M645,64.5l14.5-31.1l14.8,30.9L645,64.5z"/>
		<path id="XMLID_6_" class="st1" d="M487.1,7.9v102.4c0,0.8,0,1,0.1,1.6c0.5,2.5,2.5,3.7,4.7,4.5c0.8,0.3,0.9,0.3,1.7,0.3h86.2
			c0.8,0,1,0,1.6-0.1c2-0.4,3.9-2.2,4.4-3.1c0.3-0.6,0.5-1.1,0.6-1.7c0.3-1.4,0.3-11.5,0-12.7c-0.4-1.5-1.8-4.1-4.3-4.6
			c-0.6-0.1-0.8-0.1-1.6-0.1H513V70.2h59.8c0.8,0,1,0,1.7-0.3c2.4-0.8,3.5-2,4-3.5c0.3-1.1,0.6-9,0.4-12.4c-0.2-2.9-1.1-4.7-4-5.8
			c-0.3-0.1-0.7-0.3-1.1-0.3c-0.5-0.1-0.7-0.1-1.5-0.1H513V23.9h66.9c0.8,0,1,0,1.6-0.1c3.2-0.2,4.8-3.4,5.1-4.7
			c0.3-1.5,0.3-11.3,0-12.7c-0.6-2.9-1.7-4.2-5.4-4.8c-0.8-0.1-1.2-0.2-2-0.2h-84.3c-0.8,0-0.9,0-1.6,0.1c-1.7,0.1-3.2,1-3.4,1.1
			c-1.3,0.7-2.1,1.9-2.5,3.5C487.2,7,487.1,7.1,487.1,7.9z"/>
		<path id="XMLID_5_" class="st1" d="M379.3,7.9l0.2,101.7c0,0.8,0,1,0.1,1.7c0.5,2.9,2.2,4.1,4.6,5c0.8,0.3,0.9,0.3,1.7,0.3h77.4
			c0.8,0,1,0,1.7-0.2c3-0.8,4.5-2.9,4.9-4.7c0.3-1.5,0.3-11,0-12.4c-0.4-1.8-1.6-4-4.1-4.7c-0.6-0.2-0.8-0.2-1.6-0.2h-58.9l0.2-85.8
			c0-0.8,0-1,0-1.6c-0.3-3.8-4.6-5.2-6.7-5.3c-4.6-0.4-13.2-0.6-16.1,0.9c-1.4,0.7-2.6,1.8-3.2,3.8C379.3,7,379.3,7,379.3,7.9z"/>
	</g>
</g>
<path id="XMLID_55_" class="st0" d="M1008,108c-0.6,2.5,1.3,5.7,4.4,6.5l8,1.9c3,0.7,6.1-1.3,6.7-3.9l24.4-102.3
	c0.6-2.5-1.3-5.7-4.4-6.5l-8-1.9c-3-0.7-6.1,1.3-6.7,3.9L1008,108z M910.9,55.6c-2.1,2.3-1.6,5.7-0.3,7.1
	c1.2,1.3,69.5,52.9,69.5,52.9c2.5,1.9,4.9,1.5,6.7-0.8l6.2-7.9c1.8-2.4,1.4-4.8-1.3-6.9l-54.1-40.7l52.7-41.6c2.5-2,2.8-4.5,0.9-7
	l-5.7-7c-1.7-2.2-4.5-2.9-7.1-0.8L910.9,55.6z M1149.9,62.6c2.1-2.3,1.6-5.7,0.3-7.1c-1.2-1.3-69.5-52.9-69.5-52.9
	c-2.5-1.9-4.9-1.5-6.7,0.8l-6.2,7.9c-1.8,2.4-1.4,4.8,1.3,6.9l54.1,40.7l-52.7,41.6c-2.5,2-2.8,4.5-0.9,7l5.7,7
	c1.7,2.2,4.5,2.9,7.1,0.8L1149.9,62.6z"/>
<g id="XMLID_86_">
</g>
<g id="XMLID_87_">
</g>
<g id="XMLID_88_">
</g>
<g id="XMLID_89_">
</g>
<g id="XMLID_90_">
</g>
<g id="XMLID_91_">
</g>
</svg>
