  <svg
        height="25"
        id="mini-logo-banca"
        viewBox="213.3 25 27.4 31.7"
        xmlns="http://www.w3.org/2000/svg"
      >
        <path
          d="M233.9,38.8c-0.8-0.3-1.1-1.2-0.6-1.9c0.8-1.1,1.7-2.8,1.7-4.7c0-5.4-3.9-7.2-6.9-7.1c-2.8,0-5,0.9-8.9,4.2
	c0,0-0.1-1.9-2.8-1.9c-0.2,0-0.4,0-0.4,0c-1.6,0-2.9,1.2-2.9,2.7v14.6c0,7.1,7.4,12.2,14.2,12.1c8.3,0,13.3-3.9,13.3-9.9
	C240.7,42.7,237.8,40.1,233.9,38.8z M227.6,52.7c-3.9,0-8.1-2-8.1-8.8V32.7c1.9-1.9,4.4-4,6.4-4c3.9-0.1,4.4,2.8,4.2,4.9
	c-0.1,1.4-0.9,3.1-2.4,4.6c-0.7,0.7-0.3,1.9,0.7,2c4.6,0.8,5.4,3.5,5.4,6.3C233.8,49.8,231.6,52.7,227.6,52.7z"
        />
      </svg>